<svg version="1.1" id="Layer_1" xmlns="http://www.w3.org/2000/svg" xmlns:xlink="http://www.w3.org/1999/xlink" x="0px"
	y="0px" width="100%" viewBox="0 0 100 100" enable-background="new 0 0 100 100" xml:space="preserve">
	<path fill="#000000" opacity="1.000000" stroke="none" d="
M65.000000,101.000000 
	C43.333336,101.000000 22.166674,101.000000 1.000009,101.000000 
	C1.000006,67.666679 1.000006,34.333351 1.000003,1.000022 
	C34.333317,1.000015 67.666634,1.000015 100.999969,1.000007 
	C100.999977,34.333309 100.999977,67.666618 100.999985,100.999969 
	C89.166664,101.000000 77.333336,101.000000 65.000000,101.000000 
M68.024643,52.166050 
	C68.057327,51.131504 68.090019,50.096962 68.986526,49.009186 
	C72.009232,49.533264 72.040901,47.634853 72.023064,45.452084 
	C71.961823,37.960289 72.005173,30.467674 71.998436,22.975380 
	C71.993027,16.956861 70.133469,15.033701 64.103699,15.011418 
	C53.281631,14.971423 42.448494,15.284263 31.641943,14.872867 
	C26.690075,14.684353 23.604151,16.882540 23.172794,22.845947 
	C22.551765,31.431526 23.014156,40.095474 23.014156,48.831585 
	C24.918859,48.922081 26.397976,48.992355 27.974762,49.833942 
	C27.942171,50.868439 27.909580,51.902935 27.090891,52.989704 
	C26.044619,53.048302 24.998346,53.106903 23.130167,53.044621 
	C17.575514,52.358749 13.546144,55.199017 10.441447,59.205410 
	C8.165636,62.142193 4.869115,65.386795 8.728916,69.578926 
	C8.911022,69.776703 8.709627,70.603737 8.433176,70.904800 
	C5.698836,73.882607 7.925529,76.301857 9.277533,78.804962 
	C12.221566,84.255539 17.173292,86.302002 23.930927,86.972839 
	C37.323322,86.981865 50.721439,87.196831 64.103271,86.825340 
	C66.764679,86.751465 69.363739,84.432045 72.912506,83.047958 
	C75.895615,83.028442 78.882660,83.100395 81.861069,82.971916 
	C90.155083,82.614136 95.168549,77.162102 94.995308,68.797112 
	C94.847328,61.652596 89.524948,57.036049 81.432014,56.997009 
	C78.284851,56.981831 75.138008,56.901127 71.998077,56.055740 
	C72.627510,52.628441 70.253830,52.933544 68.024643,52.166050 
z" />
	<path fill="#FF3D00" opacity="1.000000" stroke="none" d="
M27.877094,49.062630 
	C26.397976,48.992355 24.918859,48.922081 23.014156,48.831585 
	C23.014156,40.095474 22.551765,31.431526 23.172794,22.845947 
	C23.604151,16.882540 26.690075,14.684353 31.641943,14.872867 
	C42.448494,15.284263 53.281631,14.971423 64.103699,15.011418 
	C70.133469,15.033701 71.993027,16.956861 71.998436,22.975380 
	C72.005173,30.467674 71.961823,37.960289 72.023064,45.452084 
	C72.040901,47.634853 72.009232,49.533264 68.078293,49.020401 
	C54.072403,49.041954 40.974751,49.052292 27.877094,49.062630 
M34.973370,21.999624 
	C33.397884,22.102669 31.822397,22.205713 29.999821,22.324919 
	C29.999821,27.600195 30.300390,32.434711 29.914560,37.213818 
	C29.535227,41.912453 31.245266,43.742756 36.240379,43.717068 
	C36.614418,44.046535 36.985764,44.660133 37.362885,44.663704 
	C45.656158,44.742252 53.951382,44.825211 62.242027,44.675224 
	C63.158058,44.658649 64.810852,43.257084 64.832375,42.462910 
	C65.032883,35.064957 64.951057,27.659351 64.951057,19.846254 
	C56.001373,19.846254 47.717606,19.758842 39.439835,19.942184 
	C38.223278,19.969130 37.035191,21.281528 34.973370,21.999624 
z" />
	<path fill="#FF3D00" opacity="1.000000" stroke="none" d="
M23.952074,53.165504 
	C24.998346,53.106903 26.044619,53.048302 27.960289,52.978882 
	C41.927292,52.957848 55.024899,52.947639 68.122505,52.937431 
	C70.253830,52.933544 72.627510,52.628441 71.642944,56.720680 
	C71.191917,62.478138 70.950500,67.573509 71.050354,72.662193 
	C71.119026,76.162308 71.661079,79.653130 71.991554,83.148109 
	C69.363739,84.432045 66.764679,86.751465 64.103271,86.825340 
	C50.721439,87.196831 37.323322,86.981865 23.466887,86.488235 
	C23.049669,84.341797 23.096491,82.679962 23.594234,81.011673 
	C28.025732,80.954742 32.006306,80.904282 36.362129,81.062157 
	C46.057289,81.680862 55.377197,82.091232 64.996536,82.514786 
	C64.996536,74.467224 64.906731,67.658150 65.038162,60.853340 
	C65.095390,57.890305 63.646599,57.144733 61.060001,57.164822 
	C53.901882,57.220417 46.737976,57.043449 39.589111,57.305828 
	C38.306812,57.352890 37.085384,59.058479 35.386600,59.998672 
	C31.284128,59.952358 27.630911,59.905674 23.968208,59.440063 
	C23.956509,57.069256 23.954292,55.117378 23.952074,53.165504 
z" />
	<path fill="#37474F" opacity="1.000000" stroke="none" d="
M72.452026,83.098038 
	C71.661079,79.653130 71.119026,76.162308 71.050354,72.662193 
	C70.950500,67.573509 71.191917,62.478138 71.639420,57.117943 
	C75.138008,56.901127 78.284851,56.981831 81.432014,56.997009 
	C89.524948,57.036049 94.847328,61.652596 94.995308,68.797112 
	C95.168549,77.162102 90.155083,82.614136 81.861069,82.971916 
	C78.882660,83.100395 75.895615,83.028442 72.452026,83.098038 
M78.461472,62.489113 
	C77.805107,62.995628 77.059502,63.420280 76.507286,64.022331 
	C73.554092,67.242065 73.028809,70.855766 75.461662,74.510513 
	C77.658119,77.810158 80.998039,78.749283 84.697906,77.528267 
	C88.975281,76.116653 90.456581,72.871216 90.006737,68.515030 
	C89.474823,63.364132 86.730026,61.723766 78.461472,62.489113 
z" />
	<path fill="#546D79" opacity="1.000000" stroke="none" d="
M23.541121,53.105064 
	C23.954292,55.117378 23.956509,57.069256 23.577187,59.483368 
	C17.877964,59.866600 15.287558,63.197449 13.667521,67.653900 
	C12.014842,72.200119 14.861491,75.178329 17.694695,77.883957 
	C19.166410,79.289413 21.305630,79.995895 23.143312,81.018135 
	C23.096491,82.679962 23.049669,84.341797 23.003014,86.418701 
	C17.173292,86.302002 12.221566,84.255539 9.277533,78.804962 
	C7.925529,76.301857 5.698836,73.882607 8.433176,70.904800 
	C8.709627,70.603737 8.911022,69.776703 8.728916,69.578926 
	C4.869115,65.386795 8.165636,62.142193 10.441447,59.205410 
	C13.546144,55.199017 17.575514,52.358749 23.541121,53.105064 
z" />
	<path fill="#DD2C00" opacity="1.000000" stroke="none" d="
M68.073578,52.551743 
	C55.024899,52.947639 41.927292,52.957848 28.353338,52.952744 
	C27.909580,51.902935 27.942171,50.868439 27.925928,49.448288 
	C40.974751,49.052292 54.072403,49.041954 67.646378,49.047016 
	C68.090019,50.096962 68.057327,51.131504 68.073578,52.551743 
z" />
	<path fill="#90A4AE" opacity="1.000000" stroke="none" d="
M35.833931,21.999165 
	C37.035191,21.281528 38.223278,19.969130 39.439835,19.942184 
	C47.717606,19.758842 56.001373,19.846254 64.951057,19.846254 
	C64.951057,27.659351 65.032883,35.064957 64.832375,42.462910 
	C64.810852,43.257084 63.158058,44.658649 62.242027,44.675224 
	C53.951382,44.825211 45.656158,44.742252 37.362885,44.663704 
	C36.985764,44.660133 36.614418,44.046535 36.100895,42.894398 
	C35.918919,35.380875 35.876423,28.690020 35.833931,21.999165 
M44.817848,40.995125 
	C49.120792,40.989532 53.423843,40.962994 57.726658,40.984100 
	C62.229641,41.006191 61.380325,37.406261 60.839111,35.303352 
	C59.870216,31.538694 64.432648,25.628225 57.757362,24.203094 
	C53.009674,23.189495 47.862457,23.872194 42.911316,24.133932 
	C41.917080,24.186491 40.259663,25.694042 40.182503,26.635225 
	C39.872627,30.414955 39.776501,34.271580 40.244495,38.019470 
	C40.384563,39.141186 42.617729,40.001537 44.817848,40.995125 
z" />
	<path fill="#263238" opacity="1.000000" stroke="none" d="
M35.403648,21.999393 
	C35.876423,28.690020 35.918919,35.380875 35.897667,42.536270 
	C31.245266,43.742756 29.535227,41.912453 29.914560,37.213818 
	C30.300390,32.434711 29.999821,27.600195 29.999821,22.324919 
	C31.822397,22.205713 33.397884,22.102669 35.403648,21.999393 
z" />
	<path fill="#90A4AE" opacity="1.000000" stroke="none" d="
M35.835854,59.998302 
	C37.085384,59.058479 38.306812,57.352890 39.589111,57.305828 
	C46.737976,57.043449 53.901882,57.220417 61.060001,57.164822 
	C63.646599,57.144733 65.095390,57.890305 65.038162,60.853340 
	C64.906731,67.658150 64.996536,74.467224 64.996536,82.514786 
	C55.377197,82.091232 46.057289,81.680862 36.368507,80.603394 
	C35.945038,73.290298 35.890450,66.644302 35.835854,59.998302 
M40.033173,75.174072 
	C41.261902,76.118767 42.411236,77.718376 43.735039,77.878876 
	C47.011742,78.276131 50.368279,78.018539 53.692734,78.017532 
	C60.994446,78.015327 61.044361,78.013283 60.986881,70.786476 
	C60.907528,60.809437 62.196022,62.068218 52.263550,62.016232 
	C39.979931,61.951939 39.979679,62.000355 40.033173,75.174072 
z" />
	<path fill="#273339" opacity="1.000000" stroke="none" d="
M35.386604,59.998672 
	C35.890450,66.644302 35.945038,73.290298 35.993256,80.395065 
	C32.006306,80.904282 28.025732,80.954742 23.594234,81.011673 
	C21.305630,79.995895 19.166410,79.289413 17.694695,77.883957 
	C14.861491,75.178329 12.014842,72.200119 13.667521,67.653900 
	C15.287558,63.197449 17.877964,59.866600 23.586670,59.902298 
	C27.630911,59.905674 31.284128,59.952358 35.386604,59.998672 
M27.260710,75.911827 
	C28.648523,74.773262 27.138571,71.089302 30.826460,71.860405 
	C31.083014,71.914047 31.964027,70.704758 31.897263,70.163925 
	C31.804684,69.413948 31.199223,68.628098 30.616653,68.058922 
	C29.481331,66.949677 28.209440,65.980225 26.994110,64.952873 
	C26.904253,64.373978 26.814398,63.795074 26.724543,63.216175 
	C24.181515,65.070023 21.638487,66.923866 18.444830,69.252014 
	C20.066616,70.900063 21.460056,72.474251 23.027081,73.850853 
	C24.012548,74.716560 25.258251,75.286041 27.260710,75.911827 
z" />
	<path fill="#546E78" opacity="1.000000" stroke="none" d="
M78.839737,62.349037 
	C86.730026,61.723766 89.474823,63.364132 90.006737,68.515030 
	C90.456581,72.871216 88.975281,76.116653 84.697906,77.528267 
	C80.998039,78.749283 77.658119,77.810158 75.461662,74.510513 
	C73.028809,70.855766 73.554092,67.242065 76.507286,64.022331 
	C77.059502,63.420280 77.805107,62.995628 78.839737,62.349037 
M84.418320,66.954811 
	C82.559540,67.062218 80.700760,67.169624 78.841980,67.277031 
	C78.971733,69.052727 78.452965,71.568596 79.406509,72.404053 
	C80.440735,73.310196 83.318253,73.308861 84.499458,72.460548 
	C85.394112,71.818031 84.887901,69.224937 84.418320,66.954811 
z" />
	<path fill="#BBDEFB" opacity="1.000000" stroke="none" d="
M44.354897,40.988380 
	C42.617729,40.001537 40.384563,39.141186 40.244495,38.019470 
	C39.776501,34.271580 39.872627,30.414955 40.182503,26.635225 
	C40.259663,25.694042 41.917080,24.186491 42.911316,24.133932 
	C47.862457,23.872194 53.009674,23.189495 57.757362,24.203094 
	C64.432648,25.628225 59.870216,31.538694 60.839111,35.303352 
	C61.380325,37.406261 62.229641,41.006191 57.726658,40.984100 
	C53.423843,40.962994 49.120792,40.989532 44.354897,40.988380 
z" />
	<path fill="#BBDEFB" opacity="1.000000" stroke="none" d="
M40.020794,74.707191 
	C39.979679,62.000355 39.979931,61.951939 52.263550,62.016232 
	C62.196022,62.068218 60.907528,60.809437 60.986881,70.786476 
	C61.044361,78.013283 60.994446,78.015327 53.692734,78.017532 
	C50.368279,78.018539 47.011742,78.276131 43.735039,77.878876 
	C42.411236,77.718376 41.261902,76.118767 40.020794,74.707191 
z" />
	<path fill="#ECEFF1" opacity="1.000000" stroke="none" d="
M26.823959,75.950119 
	C25.258251,75.286041 24.012548,74.716560 23.027081,73.850853 
	C21.460056,72.474251 20.066616,70.900063 18.444830,69.252014 
	C21.638487,66.923866 24.181515,65.070023 26.724543,63.216175 
	C26.814398,63.795074 26.904253,64.373978 26.994110,64.952873 
	C28.209440,65.980225 29.481331,66.949677 30.616653,68.058922 
	C31.199223,68.628098 31.804684,69.413948 31.897263,70.163925 
	C31.964027,70.704758 31.083014,71.914047 30.826460,71.860405 
	C27.138571,71.089302 28.648523,74.773262 26.823959,75.950119 
z" />
	<path fill="#ADE901" opacity="1.000000" stroke="none" d="
M84.711700,67.227341 
	C84.887901,69.224937 85.394112,71.818031 84.499458,72.460548 
	C83.318253,73.308861 80.440735,73.310196 79.406509,72.404053 
	C78.452965,71.568596 78.971733,69.052727 78.841980,67.277031 
	C80.700760,67.169624 82.559540,67.062218 84.711700,67.227341 
z" />
</svg>